<svg version="1.0"
    xmlns="http://www.w3.org/2000/svg" width="32.000000pt" height="32.000000pt" viewBox="0 0 32.000000 32.000000" preserveAspectRatio="xMidYMid meet">

    <g transform="translate(0.000000,32.000000) scale(0.100000,-0.100000)" fill="#ff0000" stroke="none">
        <path d="M138 281 c-27 -16 -38 -37 -38 -78 0 -13 -4 -23 -10 -23 -5 0 -7 -7
-4 -15 4 -10 0 -15 -15 -15 -12 0 -21 -5 -21 -12 0 -6 -8 -20 -18 -31 -16 -19
-16 -20 6 -15 17 5 22 2 22 -13 0 -23 16 -25 28 -4 7 13 11 11 22 -10 8 -15
21 -30 30 -35 25 -14 103 13 115 38 5 12 19 22 30 22 l20 1 -20 17 c-12 10
-19 27 -18 42 3 49 -27 108 -66 128 -33 17 -38 17 -63 3z"/>
    </g>
</svg>
